<?xml version="1.0" encoding="utf-8"?>
<!-- Generator: Adobe Illustrator 15.1.0, SVG Export Plug-In . SVG Version: 6.00 Build 0)  -->
<!DOCTYPE svg PUBLIC "-//W3C//DTD SVG 1.1//EN" "http://www.w3.org/Graphics/SVG/1.1/DTD/svg11.dtd">
<svg version="1.1" id="Layer_1" xmlns="http://www.w3.org/2000/svg" xmlns:xlink="http://www.w3.org/1999/xlink" x="0px" y="0px"
	 width="500.817px" height="446.096px" viewBox="0 0 500.817 446.096" enable-background="new 0 0 500.817 446.096"
	 xml:space="preserve">
<g>
	<circle fill="#719ECE" cx="288.607" cy="206.083" r="206.083"/>
	<g>
		<path fill="#FFFFFF" stroke="#3E3638" stroke-width="8" stroke-linecap="round" stroke-miterlimit="10" d="M85.357,415.769
			c0,0,132.031-19.828,175.997-15.581c37.036,3.574,142.996,41.248,142.996,41.248s204.957-225.101,4.584-259.872
			c-155.829-27.041-323.577,230.54-323.577,230.54"/>
		<path fill="#3E3638" d="M187.106,57.816c-0.859,14.231-11.668,27.078-16.447,40.16c-4.544,12.44-13.021,21.71-21.829,31.323
			c-21.437,23.402-38.596,75.104,10.784,75.182c12.077,0.016,20.405-8.396,19.797-20.589c-0.675-13.553-4.784-21.457-0.634-35.278
			c8.138-27.103-8.706-58.745,4.662-84.381"/>
		<path fill="#FFDFB4" stroke="#3E3638" stroke-width="7" stroke-linecap="round" stroke-miterlimit="10" d="M408.934,122.898
			c0-69.357-50.725-110.458-120.08-110.458c-69.357,0-116.874,32.393-116.874,101.748c0,13.447-0.604,26.901-0.381,40.044
			c-5.477,7.085-3.302,22.789-1.172,29.597c1.976,6.312,2.361,13.027,1.116,20.214c-1.052,6.068-2.821,11.068-3.709,17.373
			c-2.072,14.702,1.576,27.884,6.412,40.381c0.869,2.246,1.731,4.771,2.831,7.147c-0.014,0.516-0.055,1.011-0.055,1.533
			c0,18.688,25.567,71.646,36.184,85.362c7.229,9.339,6.825,12.933,17.402,18.394c11.134,5.748,15.52,6.244,28.913,6.244
			c44.804,0,116.874-55.57,116.874-100.375c0-1.103-0.049-2.188-0.119-3.262c3.477-14.131,6.764-28.67,9.695-43.482
			c3.961-20.011,12.393-40.934,14.711-61.401c0.002-0.008,0.002-0.017,0.004-0.024C406.036,156.14,408.934,139.462,408.934,122.898z
			"/>
		<path fill="#3E3638" d="M322.772,16.109c22.482,13.004,32.668,39.615,42.773,62.149c7.084,15.79,11.742,32.401,12.586,49.737
			c1.502,30.795-11.727,64.13-0.859,94.079c10.791,29.743,46.451,44.014,76.195,37.497c33.539-7.348,38.066-36.928,23.828-61
			c-10.027-16.952-30.373-31.188-39.727-48.562c-11.188-20.788-15.461-43.924-25.219-65.17
			c-7.174-15.621-20.967-36.348-34.326-47.83c-10.682-9.178-27.07-14.734-40.389-20.188c-5.072-2.078-9.193-2.746-14.865-2.546"/>
		<circle fill="#3E3638" cx="197.647" cy="184.772" r="12.833"/>
		<path fill="#3E3638" d="M304.174,185.848c1.461,4.032,1.134,6.938-0.809,8.031c-2.734,1.539-7.308-5.481-10.689-5.951
			c-4.67-0.65-12.859,6.375-13.404,2.484c-0.734-5.272,3.182-10.347,8.466-12.261C294.402,175.738,301.76,179.184,304.174,185.848z"
			/>
		<g>
			<path fill="#3E3638" d="M220.564,188.439c1.034,8.132,1.548,16.326,1.018,24.605c-0.235,4.138-0.793,8.288-1.748,12.396
				c-0.961,4.102-2.363,8.162-4.374,11.983c-1.042,1.943-2.151,3.63-3.151,5.345c-1.021,1.691-1.939,3.367-2.579,5.029
				c-0.649,1.663-0.952,3.305-0.819,4.93c0.14,1.623,0.734,3.263,1.65,4.842c0.891,1.576,2.09,2.929,3.525,4.086
				c1.432,1.168,3.113,2.094,4.904,2.779c3.58,1.406,7.644,1.862,11.656,1.004c-3.666,1.929-8.155,2.241-12.357,1.349
				c-2.106-0.479-4.169-1.28-6.076-2.443c-1.92-1.155-3.599-2.784-4.913-4.632c-1.319-1.811-2.403-3.999-2.763-6.431
				c-0.401-2.427-0.001-4.912,0.723-7.069c1.482-4.322,4.009-7.775,5.783-11.126c3.588-6.788,5.406-14.575,6.676-22.463
				C218.953,204.704,219.532,196.582,220.564,188.439z"/>
		</g>
		<g>
			<path fill="#FFFFFF" d="M204.063,292.938c29.333,15.582,60.958,10.541,85.708-6.875c1.716-1.207,4.849,6.592,4.849,6.592
				s-11.111,28.002-45.52,29.83c-28.308,1.505-49.533-17.646-49.533-17.646s2.335-5.868,4.497-11.444"/>
			<g>
				<path fill="#3E3638" d="M201.775,294.403c21.798,11.287,46.182,12.254,69.091,3.732c5.309-1.976,10.364-4.613,15.229-7.503
					c1.412-0.84,2.781-1.752,4.148-2.663c-1.424,0.948-2.391-1.312-0.804,0.908c0.949,1.328,1.599,2.92,2.229,4.421
					c-0.18-0.425,0.281-0.837-0.143,0.084c-0.3,0.648-0.631,1.281-0.967,1.911c-1.143,2.141-2.492,4.164-3.93,6.115
					c-12.531,16.999-34.066,22.285-54.072,17.641c-8.984-2.085-17.473-6.252-25.086-11.398c-1.736-1.174-3.423-2.432-5.014-3.797
					c-0.463-0.397,0.236,0.103,0.083,0.485c0.298-0.751,0.596-1.502,0.893-2.253c1.188-3.003,2.366-6.011,3.536-9.021
					c0.805-2.07-5.024-1.371-5.813,0.658c-1.485,3.82-2.982,7.637-4.497,11.444c-0.063,0.315,0.012,0.597,0.225,0.839
					c26.188,23.412,70.328,25.643,93.74-2.51c2.637-3.171,5.008-6.753,6.643-10.555c0.678-1.574-0.768-3.434-1.521-4.789
					c-1.638-2.949-3.643-4.937-7.152-3.407c-2.631,1.146-5.082,3.307-7.563,4.78c-3.058,1.817-6.267,3.346-9.522,4.767
					c-6.901,3.013-14.248,4.854-21.708,5.769c-15.039,1.838-30.101-1.682-43.446-8.592
					C204.543,290.534,199.25,293.097,201.775,294.403L201.775,294.403z"/>
			</g>
		</g>
		<g>
			<path fill="#3E3638" d="M286.104,277.354c2.354,1.696,4.293,3.668,6.105,5.722c1.795,2.063,3.429,4.235,4.92,6.5
				c1.492,2.264,2.838,4.623,4.021,7.09c1.168,2.478,2.207,5.039,2.826,7.877c-2.359-1.692-4.299-3.663-6.111-5.717
				c-1.795-2.063-3.428-4.236-4.914-6.504c-1.486-2.269-2.834-4.628-4.018-7.095C287.769,282.751,286.728,280.19,286.104,277.354z"
				/>
		</g>
		<g>
			<path fill="#3E3638" d="M206.634,283.312c-0.066,2.789-0.59,5.381-1.252,7.912c-0.681,2.524-1.542,4.973-2.557,7.354
				c-1.014,2.382-2.189,4.694-3.544,6.932c-1.372,2.229-2.885,4.398-4.861,6.369c0.06-2.79,0.582-5.383,1.246-7.915
				c0.681-2.523,1.542-4.972,2.563-7.352c1.021-2.379,2.195-4.692,3.55-6.93C203.152,287.456,204.664,285.286,206.634,283.312z"/>
		</g>
		<g>
			<path fill="#3E3638" d="M233.167,334.302c2.275,1.572,4.426,2.93,6.68,3.833c2.238,0.913,4.531,1.4,6.857,1.457
				c2.32,0.056,4.677-0.286,6.957-1.045c1.141-0.377,2.262-0.858,3.334-1.474c1.086-0.609,2.088-1.369,2.983-2.428
				c-0.069,1.414-0.802,2.752-1.679,3.896c-0.906,1.142-2.043,2.084-3.285,2.847c-2.494,1.514-5.455,2.283-8.418,2.201
				c-2.963-0.066-5.908-1.046-8.279-2.718C235.945,339.194,234.134,336.894,233.167,334.302z"/>
		</g>
		<g>
			<path fill="#3E3638" d="M177.939,154.521c0.219-2.265,1.305-4.235,2.54-5.946c1.268-1.708,2.795-3.18,4.501-4.412
				c1.707-1.229,3.605-2.22,5.675-2.849c1.036-0.306,2.115-0.523,3.226-0.577c1.105-0.042,2.259,0.041,3.309,0.492
				c-1.843,1.238-3.256,2.438-4.776,3.602c-1.496,1.16-2.984,2.297-4.516,3.392c-1.53,1.098-3.095,2.157-4.721,3.193
				C181.537,152.459,179.878,153.425,177.939,154.521z"/>
		</g>
		<g>
			<path fill="#3E3638" d="M286.105,140.771c5.345-2.804,12.354-2.249,17.701,1.144c2.679,1.674,4.913,4.013,6.462,6.677
				c1.541,2.669,2.457,5.65,2.42,8.68c-1.928-2.325-3.662-4.444-5.555-6.306c-1.872-1.868-3.854-3.472-5.989-4.819
				c-2.138-1.347-4.431-2.432-6.924-3.279C291.726,142,289.054,141.418,286.105,140.771z"/>
		</g>
	</g>
	<g>
		<g>
			<path fill="#FFDFB4" d="M135.155,316.942c0.447-3.342,2.822-7.498,3.98-10.648c6.586-17.936,0.908-35.583-10.5-50.041
				c-12.617-15.988-35.107-19.822-46.916-36.208c-6.586-9.138-5.303-21.25-4.462-31.624c0.658-8.127-0.393-23.499-7.764-28.329
				c-10.014-6.565-26.756,0.554-32.58,9.426c-17.419,26.538,2.103,60.976,17.516,83.362c0,0-26.673,6.946-38.018,11.715
				c-17.071,7.176-13.702,18.764-7.271,29.086c7.568,12.146,33.692,21.281,38.67,35.094c2.03,5.636-11.845,11.554-11.219,17.5
				c1.181,11.238,0.476,19.677,9.918,28.455c7.783,7.237,16.798,11.735,26.921,13.955c11.18,2.455,22.932,1.529,33.594-2.646
				c14.924-5.843,26.756-18.892,33.482-33.114c7.838-16.576,4.065-34.947,0.311-52.15"/>
			<path fill="#3E3638" d="M135.155,316.942c0.423-3.282,1.975-6.281,3.14-9.318c1.17-3.044,1.959-6.219,2.426-9.428
				c0.944-6.418,0.407-12.982-1.408-19.148c-1.811-6.175-4.783-11.964-8.458-17.232c-1.852-2.618-3.843-5.199-6.047-7.408
				c-2.229-2.242-4.709-4.241-7.333-6.067c-5.259-3.649-11.028-6.661-16.786-9.92c-5.742-3.257-11.566-6.821-16.551-11.673
				c-1.236-1.215-2.425-2.494-3.52-3.859c-1.08-1.327-2.173-2.86-3.027-4.466c-1.749-3.206-2.775-6.717-3.315-10.188
				c-1.079-6.973-0.448-13.809-0.009-20.285c0.186-3.061,0.098-6.229-0.225-9.312c-0.33-3.083-0.902-6.134-1.862-8.909
				c-0.943-2.755-2.37-5.272-4.146-6.564c-0.109-0.082-0.221-0.157-0.333-0.229l-0.442-0.272l-0.363-0.198l-0.423-0.212
				c-0.57-0.274-1.168-0.504-1.79-0.689c-1.242-0.372-2.579-0.563-3.955-0.593c-5.534-0.09-11.473,2.193-16.087,5.658
				c-1.151,0.873-2.218,1.832-3.144,2.854c-0.462,0.512-0.884,1.04-1.262,1.577c-0.195,0.276-0.34,0.505-0.581,0.885l-0.576,0.949
				c-1.521,2.584-2.724,5.335-3.579,8.197c-1.723,5.727-2.014,11.872-1.253,17.966c0.729,6.106,2.456,12.173,4.742,18.06
				c4.614,11.797,11.347,22.872,18.701,33.521l3.199,4.633l-5.463,1.446c-6.935,1.839-13.888,3.827-20.764,5.874
				c-3.437,1.031-6.859,2.098-10.218,3.238c-1.677,0.57-3.341,1.162-4.952,1.787l-1.194,0.476l-1.175,0.501
				c-0.686,0.305-1.446,0.676-2.131,1.047c-2.788,1.494-5.112,3.422-6.237,5.629c-1.155,2.17-1.219,4.814-0.402,7.738
				c0.793,2.885,2.39,5.94,4.131,8.729c1.572,2.478,4.01,4.744,6.669,6.89c5.38,4.278,11.56,8.101,17.546,12.528
				c2.994,2.23,5.979,4.611,8.719,7.508c1.365,1.449,2.668,3.037,3.789,4.847c0.56,0.904,1.072,1.862,1.509,2.88
				c0.112,0.252,0.216,0.508,0.313,0.771l0.147,0.392l0.098,0.301l0.069,0.241c0.162,0.615,0.209,1.015,0.235,1.491
				c0.023,0.463-0.003,0.919-0.065,1.35c-0.266,1.74-0.983,2.976-1.651,3.975c-0.687,1-1.402,1.799-2.107,2.537
				c-1.411,1.461-2.804,2.675-4.078,3.869c-1.259,1.174-2.445,2.361-3.128,3.388c-0.341,0.502-0.511,0.937-0.528,1.099
				c-0.013,0.045-0.008,0.07-0.014,0.094l0.003,0.067l0.032,0.338l0.126,1.388c0.319,3.676,0.502,7.25,1.02,10.553
				c0.517,3.306,1.474,6.302,3.137,8.984c1.641,2.704,3.955,5.029,6.604,7.285c2.607,2.225,5.427,4.19,8.418,5.863
				c5.966,3.345,12.684,5.518,19.506,6.501c13.654,1.961,28.232-1.208,39.5-9.508c5.68-4.091,10.674-9.207,14.82-14.95
				c2.073-2.874,3.941-5.904,5.575-9.061c1.651-3.136,2.91-6.414,3.807-9.845c1.797-6.858,2.012-14.114,1.437-21.28
				c-0.543-7.187-1.842-14.33-3.18-21.449c1.749,7.029,3.469,14.086,4.438,21.318c0.929,7.217,1.092,14.661-0.44,21.939
				c-0.746,3.626-1.963,7.206-3.561,10.548c-1.565,3.345-3.381,6.573-5.426,9.66c-4.096,6.162-9.105,11.788-15.034,16.38
				c-2.966,2.287-6.157,4.312-9.545,5.988c-3.428,1.693-6.928,2.964-10.586,3.955c-7.284,1.957-14.953,2.541-22.491,1.693
				c-7.535-0.896-14.888-3.1-21.656-6.678c-3.374-1.787-6.574-3.913-9.533-6.324c-2.909-2.363-5.873-5.145-8.085-8.605
				c-2.256-3.432-3.607-7.457-4.28-11.284c-0.701-3.847-0.9-7.521-1.267-11.054l-0.137-1.316l-0.037-0.337
				c-0.013-0.14-0.036-0.412-0.042-0.611c-0.007-0.429,0.014-0.856,0.076-1.26c0.245-1.638,0.903-2.867,1.544-3.877
				c1.324-2.001,2.76-3.358,4.112-4.685c1.353-1.299,2.672-2.492,3.76-3.655c0.539-0.576,1.016-1.148,1.346-1.648
				c0.339-0.495,0.476-0.916,0.465-0.979c0.001-0.019-0.001-0.016-0.003-0.006c0.008,0.025-0.02-0.023,0.033,0.151
				c0.026,0.069-0.013-0.047-0.025-0.085l-0.026-0.08c0.012,0.034-0.063-0.191,0.02,0.057l-0.097-0.241
				c-0.061-0.161-0.128-0.322-0.204-0.483c-0.288-0.645-0.638-1.281-1.041-1.912c-0.803-1.263-1.818-2.482-2.952-3.652
				c-2.272-2.344-4.992-4.48-7.833-6.531c-5.701-4.133-11.972-7.805-17.951-12.538c-2.96-2.388-5.986-5.048-8.357-8.681
				c-1.088-1.717-2.011-3.327-2.904-5.133c-0.875-1.785-1.66-3.67-2.235-5.713c-0.574-2.035-0.937-4.25-0.844-6.576
				c0.083-2.316,0.679-4.732,1.781-6.846c1.088-2.124,2.603-3.915,4.238-5.367c1.641-1.459,3.405-2.615,5.193-3.595
				c0.906-0.493,1.771-0.924,2.74-1.356l1.321-0.569l1.327-0.536c1.763-0.693,3.511-1.321,5.259-1.926
				c3.495-1.205,6.986-2.311,10.483-3.376c6.998-2.132,14-4.041,21.074-5.9l-2.264,6.079c-7.491-10.966-14.486-22.509-19.401-35.224
				c-2.432-6.353-4.324-13.02-5.121-19.965c-0.772-6.926-0.367-14.177,1.795-21.02c1.071-3.414,2.563-6.702,4.414-9.749
				c0.219-0.367,0.496-0.803,0.718-1.146c0.202-0.311,0.502-0.771,0.787-1.16c0.578-0.798,1.195-1.543,1.843-2.241
				c1.298-1.393,2.706-2.612,4.183-3.703c2.96-2.172,6.195-3.846,9.633-5.04c3.437-1.18,7.104-1.889,10.92-1.76
				c3.806,0.144,7.776,1.158,11.162,3.721c1.735,1.353,3.006,3.015,3.986,4.692c0.976,1.688,1.682,3.419,2.239,5.148
				c1.104,3.462,1.65,6.925,1.945,10.371c0.279,3.452,0.302,6.871,0.014,10.358c-0.61,6.576-1.286,12.939-0.476,19.01
				c0.405,3.016,1.198,5.912,2.507,8.526c1.268,2.547,3.272,5.025,5.385,7.253c4.309,4.476,9.669,8.04,15.223,11.415
				c5.555,3.39,11.381,6.615,16.753,10.697c2.685,2.03,5.253,4.271,7.557,6.78c2.333,2.542,4.255,5.267,6.083,8.076
				c3.619,5.632,6.475,11.81,8.032,18.34c1.575,6.513,1.82,13.358,0.498,19.884c-0.667,3.256-1.662,6.443-3.025,9.455
				C137.468,310.841,135.768,313.696,135.155,316.942z"/>
		</g>
		<g>
			<path fill="#FFDFB4" d="M84.42,298.06c-17.042-1.004-73.382-4.201-68.229,26.478c3.381,20.128,21.11,22.687,38.275,18.056
				c8.818-2.378,17.843-5.561,27.297-7.105c8.483-1.387,15.095,2.218,23.556,0.029c8.212-2.123,12.63-13.373,11.732-21.976
				C115.47,298.392,95.592,298.718,84.42,298.06z"/>
			<path fill="#3E3638" d="M84.42,298.06c-10.414-0.632-20.905-0.732-31.253,0.457c-5.166,0.6-10.289,1.561-15.22,2.994
				c-4.895,1.473-9.677,3.518-13.415,6.573c-1.855,1.524-3.391,3.317-4.39,5.31c-1.016,1.988-1.46,4.166-1.468,6.396
				c-0.005,1.114,0.101,2.246,0.304,3.377c0.099,0.58,0.221,1.093,0.374,1.762c0.139,0.54,0.292,1.103,0.467,1.671
				c0.691,2.25,1.677,4.326,2.907,6.139c2.469,3.642,6.167,5.986,10.506,7.052c4.337,1.075,9.164,1.008,13.93,0.271
				c2.409-0.357,4.747-0.867,7.193-1.545l7.481-2.056c5.039-1.394,10.203-2.755,15.531-3.674c1.353-0.231,2.624-0.435,4.069-0.604
				c0.578-0.062,1.483-0.146,2.179-0.164c0.735-0.029,1.466-0.027,2.188-0.002c2.896,0.096,5.608,0.59,8.147,1.008
				c2.541,0.418,4.93,0.787,7.286,0.731c1.175-0.026,2.34-0.149,3.497-0.372c1.034-0.193,2.037-0.574,2.992-1.128
				c1.913-1.106,3.568-2.874,4.865-4.912c1.294-2.047,2.278-4.362,2.88-6.782c1.149-4.785,1.248-10.311-1.982-14.273
				c-1.562-1.963-3.724-3.455-6.073-4.502c-2.353-1.055-4.87-1.778-7.427-2.258C94.869,298.524,89.626,298.362,84.42,298.06z
				 M84.42,298.06c5.211,0.267,10.442,0.373,15.62,1.186c2.579,0.43,5.16,0.982,7.622,1.96c2.445,0.976,4.829,2.335,6.667,4.362
				c1.849,2.009,3.052,4.606,3.517,7.332c0.468,2.68,0.416,5.44-0.003,8.135c-0.429,2.693-1.199,5.361-2.452,7.876
				c-1.254,2.499-2.991,4.894-5.438,6.69c-1.217,0.894-2.62,1.615-4.116,2.067c-1.374,0.419-2.793,0.722-4.22,0.901
				c-2.858,0.356-5.699,0.242-8.333,0.029c-2.64-0.207-5.118-0.422-7.449-0.289c-0.583,0.03-1.158,0.08-1.724,0.153
				c-0.606,0.074-0.996,0.147-1.709,0.284c-1.131,0.247-2.427,0.521-3.63,0.816c-4.9,1.199-9.775,2.748-14.75,4.306
				c-2.485,0.765-5.008,1.575-7.567,2.286c-2.578,0.738-5.34,1.391-8.095,1.808c-5.527,0.806-11.375,0.905-17.154-0.741
				c-2.876-0.815-5.692-2.147-8.185-3.985c-2.506-1.823-4.579-4.229-6.119-6.832c-1.559-2.608-2.516-5.443-3.133-8.243
				c-0.15-0.695-0.28-1.407-0.399-2.146c-0.085-0.613-0.198-1.386-0.255-2.103c-0.131-1.457-0.144-2.944-0.004-4.437
				c0.269-2.979,1.259-5.975,2.897-8.492c1.627-2.531,3.82-4.551,6.169-6.105c4.742-3.109,10.007-4.623,15.198-5.688
				c5.212-1.062,10.471-1.502,15.707-1.76C63.559,296.951,74.001,297.412,84.42,298.06z"/>
		</g>
		<g>
			<path fill="#FFDFB4" d="M8.182,269.407c3.062-5.629,36.899-16.648,60.32-15.413c8.207,0.435,25.194,0.598,31.865,8.567
				c9.093,10.858,4.891,31.371-11.382,33.129c-16.357,1.766-22.91,1.295-39.103,2.758c-12.89,1.164-33.268,12.365-41.707-2.725
				C5.091,290.209,0.871,278.912,8.182,269.407"/>
			<path fill="#3E3638" d="M8.182,269.407c0.595-1.2,1.702-2.059,2.752-2.854c1.076-0.79,2.21-1.491,3.364-2.155
				c2.321-1.304,4.73-2.433,7.167-3.49c4.883-2.102,9.927-3.787,15.032-5.291c10.249-2.83,20.806-4.909,31.801-4.745
				c2.614,0.058,5.256,0.076,7.952,0.19c2.69,0.117,5.404,0.358,8.141,0.739c2.736,0.394,5.499,0.938,8.27,1.824
				c2.759,0.894,5.572,2.112,8.156,4.123c0.642,0.504,1.265,1.058,1.852,1.668c0.148,0.149,0.292,0.308,0.434,0.467l0.41,0.478
				l0.328,0.404l0.391,0.512c0.949,1.285,1.744,2.637,2.406,4.055c1.319,2.832,2.077,5.867,2.319,8.928
				c0.45,6.096-1.105,12.465-5.089,17.557c-1.991,2.519-4.628,4.617-7.59,5.961c-1.478,0.673-3.023,1.177-4.583,1.492
				c-0.777,0.17-1.568,0.275-2.338,0.364l-1.979,0.198c-5.289,0.491-10.625,0.852-15.906,1.043
				c-5.284,0.188-10.472,0.357-15.663,0.625l-3.892,0.229l-1.912,0.129l-0.884,0.08l-0.889,0.103
				c-2.399,0.303-4.906,0.836-7.449,1.396c-5.097,1.096-10.361,2.461-16.017,2.649c-2.817,0.074-5.764-0.146-8.627-1.097
				c-2.857-0.928-5.533-2.723-7.39-5.053c-0.932-1.151-1.696-2.438-2.295-3.69c-0.604-1.259-1.126-2.521-1.578-3.822
				c-0.895-2.594-1.528-5.293-1.675-8.041c-0.164-2.737,0.118-5.514,0.955-8.098C5.013,273.704,6.396,271.345,8.182,269.407
				c-2.919,4.43-3.752,9.787-2.778,14.71c0.477,2.469,1.275,4.868,2.346,7.14c0.532,1.135,1.136,2.245,1.785,3.295
				c0.648,1.055,1.346,1.969,2.158,2.782c1.597,1.633,3.553,2.728,5.743,3.246c2.188,0.53,4.572,0.538,6.981,0.271
				c4.844-0.56,9.767-2.02,14.838-3.47c2.547-0.719,5.144-1.446,7.932-1.972l1.06-0.182l1.072-0.144l2.01-0.221l3.958-0.4
				c5.281-0.524,10.584-0.815,15.787-1.167c5.205-0.34,10.345-0.74,15.502-1.326l1.938-0.212c0.532-0.067,1.044-0.137,1.549-0.252
				c1.012-0.21,1.974-0.536,2.883-0.954c1.816-0.842,3.393-2.111,4.657-3.712c2.563-3.183,3.772-7.682,3.483-12.022
				c-0.13-2.174-0.632-4.321-1.496-6.268c-0.873-1.938-2.086-3.723-3.521-4.926c-1.517-1.288-3.542-2.318-5.743-3.109
				c-2.206-0.798-4.593-1.369-7.038-1.81c-4.912-0.86-10.018-1.209-15.287-1.623c-4.997-0.399-10.125-0.183-15.249,0.22
				c-5.13,0.412-10.262,1.157-15.361,2.116c-5.112,0.915-10.179,2.121-15.182,3.563c-2.5,0.725-4.978,1.535-7.393,2.498
				c-1.21,0.477-2.406,0.992-3.554,1.599c-0.574,0.303-1.134,0.632-1.665,1.003C9.071,268.453,8.553,268.86,8.182,269.407z"/>
		</g>
		<g>
			<path fill="#FFDFB4" d="M33.425,353.501c-1.908-15.761,24.329-17.413,36.848-19.273c11.483-1.709,26.451-3.633,37.583,1.014
				c5.912,2.469,10.314,8.874,10.542,15.433c0.943,27.233-69.103,26.61-72.728,24.142C37.43,369.203,35.199,361.631,33.425,353.501"
				/>
			<path fill="#3E3638" d="M33.425,353.501c-0.505-2.16-0.402-4.55,0.498-6.732c0.908-2.18,2.536-4.015,4.362-5.47
				c1.832-1.477,3.899-2.577,5.998-3.521c2.105-0.938,4.267-1.699,6.445-2.363c4.368-1.285,8.806-2.146,13.189-2.958l6.504-1.175
				c2.19-0.407,4.395-0.817,6.624-1.15c4.455-0.688,8.992-1.212,13.627-1.308c4.63-0.112,9.381,0.216,14.134,1.397
				c1.187,0.291,2.371,0.659,3.541,1.086l0.875,0.338c0.447,0.185,0.517,0.213,0.891,0.383c0.729,0.336,1.281,0.644,1.888,1
				c2.353,1.43,4.361,3.291,5.98,5.426c1.616,2.139,2.843,4.564,3.601,7.176c0.382,1.305,0.632,2.66,0.75,4.041
				c0.025,0.366,0.048,0.646,0.058,1.086l0.007,0.415l-0.006,0.548c-0.016,0.772-0.076,1.424-0.173,2.143
				c-0.387,2.818-1.529,5.55-3.099,7.804c-1.569,2.271-3.503,4.108-5.532,5.624c-4.102,2.996-8.527,4.9-12.961,6.374
				c-4.45,1.444-8.937,2.469-13.438,3.192c-4.499,0.744-9.008,1.205-13.515,1.477c-4.507,0.266-9.014,0.346-13.519,0.191
				c-2.253-0.082-4.505-0.207-6.764-0.404c-2.278-0.221-4.479-0.412-6.912-0.989c-0.317-0.085-0.635-0.174-1.028-0.323
				c-0.212-0.09-0.403-0.15-0.776-0.392c-0.107-0.069-0.125-0.091-0.149-0.108l-0.081-0.063l-0.162-0.13
				c-0.414-0.328-0.915-0.746-1.352-1.135c-0.881-0.785-1.715-1.627-2.485-2.519c-1.541-1.783-2.838-3.767-3.791-5.873
				C34.699,362.372,33.938,357.903,33.425,353.501c1.375,4.221,2.821,8.45,5.171,12.016c1.18,1.771,2.519,3.396,4.07,4.782
				c0.773,0.695,1.591,1.336,2.446,1.925c0.433,0.295,0.815,0.545,1.312,0.846l0.177,0.109l0.089,0.055
				c0.034,0.021,0.069,0.045,0.022,0.009c-0.139-0.091-0.068-0.056-0.02-0.054c0.13,0.026,0.353,0.065,0.578,0.095
				c1.922,0.235,4.161,0.266,6.301,0.247c2.166-0.023,4.343-0.114,6.517-0.248c4.349-0.268,8.692-0.662,13.002-1.213
				c8.597-1.129,17.172-2.731,25.056-5.576c3.908-1.434,7.677-3.184,10.679-5.51c3.038-2.297,5.078-5.119,5.475-8.25
				c0.485-3.164-0.572-6.752-2.645-9.565c-1.022-1.416-2.301-2.637-3.714-3.54c-0.341-0.213-0.755-0.447-1.028-0.583
				c-0.126-0.067-0.563-0.262-0.627-0.289l-0.669-0.272c-0.905-0.344-1.821-0.685-2.777-0.949
				c-3.813-1.104-7.963-1.547-12.177-1.676c-4.223-0.102-8.527,0.115-12.86,0.498c-2.166,0.199-4.345,0.406-6.536,0.647
				c-2.231,0.251-4.464,0.449-6.655,0.626c-4.39,0.368-8.724,0.812-12.973,1.586c-4.239,0.742-8.449,1.825-12.102,3.898
				c-1.81,1.043-3.44,2.412-4.542,4.199C33.852,349.081,33.377,351.278,33.425,353.501z"/>
		</g>
	</g>
</g>
</svg>
